<?xml version="1.0" encoding="UTF-8" standalone="no"?>
<!DOCTYPE svg PUBLIC "-//W3C//DTD SVG 1.1//EN" "http://www.w3.org/Graphics/SVG/1.1/DTD/svg11.dtd">
<svg width="100%" height="100%" viewBox="0 0 350 350" version="1.1" xmlns="http://www.w3.org/2000/svg" xmlns:xlink="http://www.w3.org/1999/xlink" xml:space="preserve" xmlns:serif="http://www.serif.com/" style="fill-rule:evenodd;clip-rule:evenodd;stroke-linecap:round;stroke-linejoin:round;stroke-miterlimit:5;">
    <g id="icon_ok_progress" transform="matrix(1,0,0,1,-713.453,-440.092)">
        <g transform="matrix(0.787015,0,0,0.787015,552.702,125.922)">
            <path d="M583.186,543.266L583.186,699.839C583.186,743.046 548.107,778.125 504.9,778.125L348.327,778.125C305.119,778.125 270.04,743.046 270.04,699.839L270.04,543.266C270.04,500.058 305.119,464.979 348.327,464.979L504.9,464.979C548.107,464.979 583.186,500.058 583.186,543.266Z" style="fill:rgb(0,181,103);stroke:white;stroke-width:38.12px;"/>
        </g>
        <g id="face_ok_progress">
            <g transform="matrix(1.21098,0,0,1.83715,661.704,-581.203)">
                <path d="M154.264,679.187C154.264,679.187 185.931,713.12 219.863,679.187" style="fill:none;stroke:black;stroke-width:10.28px;"/>
            </g>
            <g id="eyes_ok_progress" transform="matrix(1,0,0,1,364.223,-1.55469)">
                <g transform="matrix(1.51081,0.266397,-0.173648,0.984808,-194.626,-139.551)">
                    <ellipse cx="558.645" cy="585.146" rx="17.63" ry="31.266" style="fill:white;"/>
                </g>
                <g transform="matrix(1,0,0,1,0.445313,-5.07552)">
                    <circle cx="546.348" cy="591.453" r="10.357"/>
                </g>
                <g transform="matrix(1.51081,-0.266397,0.173648,0.984808,-451.715,158.092)">
                    <ellipse cx="558.645" cy="585.146" rx="17.63" ry="31.266" style="fill:white;"/>
                </g>
                <g transform="matrix(1,0,0,1,-50.362,-5.07552)">
                    <circle cx="546.348" cy="591.453" r="10.357"/>
                </g>
            </g>
        </g>
    </g>
</svg>
